<svg version="1.1" id="Layer_1" xmlns="http://www.w3.org/2000/svg" xmlns:xlink="http://www.w3.org/1999/xlink" x="0px" y="0px" width="20px" height="20px" viewBox="0 0 20 20" enable-background="new 0 0 20 20" xml:space="preserve"><g><g><path d="M2.012,17.198c-0.537,0-1.047-0.316-1.265-0.841c-0.287-0.693,0.046-1.486,0.744-1.772L17.47,8.05 c0.698-0.285,1.498,0.045,1.785,0.739c0.287,0.694-0.046,1.488-0.743,1.773L2.532,17.097C2.362,17.166,2.186,17.198,2.012,17.198z"></path></g><g><path d="M2.012,12.021c-0.537,0-1.047-0.316-1.265-0.841C0.46,10.487,0.793,9.693,1.491,9.408L17.47,2.873 c0.698-0.286,1.498,0.045,1.785,0.738c0.287,0.694-0.046,1.487-0.743,1.773L2.532,11.919C2.362,11.989,2.186,12.021,2.012,12.021z"></path></g><g><path d="M2.012,6.675c-0.54,0-1.051-0.319-1.267-0.847C0.46,5.133,0.797,4.341,1.497,4.059L11.299,0.1 c0.699-0.283,1.497,0.051,1.781,0.747c0.284,0.694-0.052,1.487-0.752,1.769L2.526,6.575C2.358,6.643,2.184,6.675,2.012,6.675z"></path></g><g><path d="M8.165,20c-0.54,0-1.051-0.32-1.267-0.848c-0.285-0.694,0.052-1.486,0.751-1.77l9.802-3.958 c0.699-0.282,1.497,0.052,1.781,0.746s-0.052,1.487-0.751,1.77l-9.803,3.959C8.51,19.967,8.336,20,8.165,20z"></path></g></g></svg>
