<svg xmlns="http://www.w3.org/2000/svg" xmlns:xlink="http://www.w3.org/1999/xlink" version="1.1" id="Layer_1" x="0px" y="0px" width="100px" height="100px" viewBox="0 0 100 100" enable-background="new 0 0 100 100" xml:space="preserve">
  <g>
    <g>
      <path fill="#FFFFFF" d="M10.874,85.257c-2.632,0-5.129-1.551-6.193-4.119c-1.409-3.396,0.223-7.283,3.642-8.681l78.254-32.006    c3.419-1.397,7.334,0.221,8.743,3.617c1.408,3.398-0.225,7.284-3.643,8.682L13.421,84.754    C12.588,85.095,11.723,85.257,10.874,85.257z"/>
    </g>
    <g>
      <path fill="#FFFFFF" d="M10.874,59.904c-2.632,0-5.129-1.55-6.193-4.121c-1.409-3.398,0.223-7.284,3.642-8.682l78.254-32.005    c3.419-1.398,7.334,0.223,8.743,3.617c1.408,3.396-0.225,7.283-3.643,8.682L13.421,59.399    C12.588,59.742,11.723,59.904,10.874,59.904z"/>
    </g>
    <g>
      <path fill="#FFFFFF" d="M10.874,33.718c-2.643,0-5.147-1.564-6.206-4.147c-1.391-3.401,0.255-7.28,3.681-8.665L56.354,1.517    c3.425-1.383,7.329,0.254,8.724,3.656c1.394,3.401-0.256,7.282-3.682,8.664L13.393,33.228    C12.569,33.559,11.713,33.718,10.874,33.718z"/>
    </g>
    <g>
      <path fill="#FFFFFF" d="M41.006,98.974c-2.646,0-5.15-1.565-6.206-4.149c-1.394-3.4,0.255-7.278,3.679-8.665l48.004-19.386    c3.426-1.385,7.333,0.252,8.723,3.656c1.395,3.401-0.253,7.28-3.678,8.662L43.524,98.48C42.7,98.815,41.844,98.974,41.006,98.974z    "/>
    </g>
  </g>
</svg>
